<svg id="Component_20_1" data-name="Component 20 – 1" xmlns="http://www.w3.org/2000/svg" width="179" height="183" viewBox="0 0 179 183">
  <path id="Path_89" data-name="Path 89" d="M89.5,0C138.929,0,179,40.966,179,91.5S138.929,183,89.5,183,0,142.034,0,91.5,40.071,0,89.5,0Z" fill="#446c68"/>
  <path id="Icon_metro-shop" data-name="Icon metro-shop" d="M25.779,27.26,29.125,4.627h-17.4l-7.27,19.4a6.92,6.92,0,0,0-.343,2.156c0,4.759,4.864,8.622,10.873,8.622,5.54,0,10.121-3.294,10.793-7.544Zm16.4,7.544c6.005,0,10.873-3.863,10.873-8.622,0-.177-.013-.353-.021-.522L50.876,4.627h-17.4L31.32,25.644c-.008.177-.017.353-.017.539,0,4.759,4.868,8.622,10.873,8.622Zm21.146,4.509V56.36H21.03V39.34a17.492,17.492,0,0,1-6.044,1.069,17.115,17.115,0,0,1-2.415-.211V67.568A5.992,5.992,0,0,0,18.484,73.6H65.86a6,6,0,0,0,5.921-6.035V40.2a17.834,17.834,0,0,1-2.415.211A17.278,17.278,0,0,1,63.322,39.314ZM79.9,24.027l-7.278-19.4H55.227l3.341,22.6c.651,4.268,5.231,7.579,10.8,7.579,6.005,0,10.873-3.863,10.873-8.622a7.045,7.045,0,0,0-.338-2.156Z" transform="translate(46.861 47.398)" fill="#fff"/>
</svg>
