<svg id="Component_21_1" data-name="Component 21 – 1" xmlns="http://www.w3.org/2000/svg" width="179" height="182" viewBox="0 0 179 182">
  <ellipse id="Ellipse_42" data-name="Ellipse 42" cx="89.5" cy="91" rx="89.5" ry="91" fill="#446c68"/>
  <path id="Icon_awesome-headset" data-name="Icon awesome-headset" d="M28.459,31.427a4.79,4.79,0,0,0-4.743-4.835H21.344a9.579,9.579,0,0,0-9.486,9.67v7.252a9.579,9.579,0,0,0,9.486,9.67h2.372a4.79,4.79,0,0,0,4.743-4.835ZM54.546,53.184a9.579,9.579,0,0,0,9.486-9.67V36.262a9.579,9.579,0,0,0-9.486-9.67H52.174a4.79,4.79,0,0,0-4.743,4.835V48.349a4.79,4.79,0,0,0,4.743,4.835ZM37.945,0C16.776,0,.679,17.954,0,38.679V41.1a2.394,2.394,0,0,0,2.372,2.417H4.743A2.394,2.394,0,0,0,7.115,41.1V38.679c0-17.329,13.831-31.427,30.83-31.427s30.83,14.1,30.83,31.427h-.018c.012.367.018,25.039.018,25.039a6.328,6.328,0,0,1-6.267,6.388H47.431a7.184,7.184,0,0,0-7.115-7.252H35.573a7.254,7.254,0,0,0,0,14.5H62.509A13.513,13.513,0,0,0,75.89,63.718V38.679C75.211,17.954,59.114,0,37.945,0Z" transform="translate(52.514 52.805)" fill="#fff"/>
</svg>
