<svg id="Component_19_1" data-name="Component 19 – 1" xmlns="http://www.w3.org/2000/svg" width="179" height="183" viewBox="0 0 179 183">
  <ellipse id="Ellipse_43" data-name="Ellipse 43" cx="89.5" cy="91.5" rx="89.5" ry="91.5" fill="#446c68"/>
  <path id="Icon_feather-thumbs-up" data-name="Icon feather-thumbs-up" d="M45.659,28.366V13.871A10.769,10.769,0,0,0,34.994,3L20.774,35.613v39.86h40.1a7.152,7.152,0,0,0,7.11-6.16L72.889,36.7a7.344,7.344,0,0,0-1.664-5.843,7.052,7.052,0,0,0-5.446-2.491ZM20.774,75.473H10.11A7.18,7.18,0,0,1,3,68.226V42.86a7.18,7.18,0,0,1,7.11-7.247H20.774" transform="translate(50.929 47.105)" fill="#fff"/>
</svg>
