<svg xmlns="http://www.w3.org/2000/svg" width="67.862" height="47.715" viewBox="0 0 67.862 47.715">
  <path id="Icon_awesome-youtube" data-name="Icon awesome-youtube" d="M67.494,11.966a8.527,8.527,0,0,0-6-6.039C56.2,4.5,34.981,4.5,34.981,4.5S13.76,4.5,8.468,5.927a8.527,8.527,0,0,0-6,6.039C1.05,17.292,1.05,28.406,1.05,28.406s0,11.113,1.418,16.44a8.4,8.4,0,0,0,6,5.942c5.292,1.427,26.513,1.427,26.513,1.427s21.221,0,26.513-1.427a8.4,8.4,0,0,0,6-5.942c1.418-5.327,1.418-16.44,1.418-16.44s0-11.113-1.418-16.44ZM28.04,38.5V18.316l17.736,10.09L28.04,38.5Z" transform="translate(-1.05 -4.5)" fill="#fff"/>
</svg>
