<svg xmlns="http://www.w3.org/2000/svg" width="48.959" height="48.948" viewBox="0 0 48.959 48.948">
  <path id="Icon_awesome-instagram" data-name="Icon awesome-instagram" d="M24.48,14.162a12.55,12.55,0,1,0,12.55,12.55A12.53,12.53,0,0,0,24.48,14.162Zm0,20.708a8.159,8.159,0,1,1,8.159-8.159A8.174,8.174,0,0,1,24.48,34.87ZM40.47,13.649a2.927,2.927,0,1,1-2.927-2.927A2.92,2.92,0,0,1,40.47,13.649Zm8.312,2.971C48.6,12.7,47.7,9.225,44.828,6.364S38.493,2.606,34.572,2.41c-4.041-.229-16.154-.229-20.2,0C10.466,2.6,6.993,3.491,4.121,6.353S.363,12.687.167,16.609c-.229,4.041-.229,16.154,0,20.2C.352,40.725,1.248,44.2,4.121,47.06s6.335,3.757,10.256,3.954c4.041.229,16.154.229,20.2,0,3.921-.186,7.394-1.081,10.256-3.954s3.757-6.335,3.954-10.256c.229-4.041.229-16.143,0-20.184ZM43.561,41.14a8.26,8.26,0,0,1-4.653,4.653c-3.222,1.278-10.868.983-14.428.983s-11.217.284-14.428-.983A8.26,8.26,0,0,1,5.4,41.14c-1.278-3.222-.983-10.868-.983-14.428S4.132,15.494,5.4,12.283a8.26,8.26,0,0,1,4.653-4.653c3.222-1.278,10.868-.983,14.428-.983s11.217-.284,14.428.983a8.26,8.26,0,0,1,4.653,4.653c1.278,3.222.983,10.868.983,14.428S44.839,37.929,43.561,41.14Z" transform="translate(0.005 -2.238)" fill="#fff"/>
</svg>
