<svg xmlns="http://www.w3.org/2000/svg" width="48.231" height="47.714" viewBox="0 0 48.231 47.714">
  <path id="Icon_awesome-pinterest-p" data-name="Icon awesome-pinterest-p" d="M25.623.457C12.736.457,0,7,0,17.579c0,6.73,4.974,10.554,7.988,10.554,1.243,0,1.959-2.639,1.959-3.384,0-.889-2.977-2.782-2.977-6.482,0-7.686,7.687-13.135,17.634-13.135,8.553,0,14.884,3.7,14.884,10.5,0,5.076-2.675,14.6-11.342,14.6-3.127,0-5.8-1.721-5.8-4.187,0-3.614,3.316-7.113,3.316-10.841,0-6.329-11.794-5.182-11.794,2.466a8.941,8.941,0,0,0,1.206,4.847C13.339,28.191,9.8,36.651,9.8,42.5a43.613,43.613,0,0,0,.565,5.392c.427.363.214.325.867.143,6.33-6.6,6.1-7.887,8.968-16.52,1.545,2.237,5.539,3.442,8.7,3.442,13.339,0,19.33-9.895,19.33-18.814C48.231,6.652,37.454.457,25.623.457Z" transform="translate(0 -0.457)" fill="#fff"/>
</svg>
