<svg xmlns="http://www.w3.org/2000/svg" width="52.639" height="40.941" viewBox="0 0 52.639 40.941">
  <path id="Icon_awesome-credit-card" data-name="Icon awesome-credit-card" d="M0,38.8a4.388,4.388,0,0,0,4.387,4.387H48.252A4.388,4.388,0,0,0,52.639,38.8V22.721H0ZM17.546,32.59a1.1,1.1,0,0,1,1.1-1.1H31.071a1.1,1.1,0,0,1,1.1,1.1v3.655a1.1,1.1,0,0,1-1.1,1.1H18.643a1.1,1.1,0,0,1-1.1-1.1Zm-11.7,0a1.1,1.1,0,0,1,1.1-1.1h6.58a1.1,1.1,0,0,1,1.1,1.1v3.655a1.1,1.1,0,0,1-1.1,1.1H6.945a1.1,1.1,0,0,1-1.1-1.1ZM52.639,6.637v4.387H0V6.637A4.388,4.388,0,0,1,4.387,2.25H48.252A4.388,4.388,0,0,1,52.639,6.637Z" transform="translate(0 -2.25)" fill="#fff"/>
</svg>
