<svg xmlns="http://www.w3.org/2000/svg" width="52.639" height="40.941" viewBox="0 0 52.639 40.941">
  <path id="Icon_awesome-cc-mastercard" data-name="Icon awesome-cc-mastercard" d="M44.131,36.8a1.025,1.025,0,1,1-1.024-1.069A1.021,1.021,0,0,1,44.131,36.8Zm-28.4-1.069a1.072,1.072,0,1,0,1,1.069A1.011,1.011,0,0,0,15.728,35.731ZM26.466,35.7a.847.847,0,0,0-.868.8h1.745A.84.84,0,0,0,26.466,35.7Zm9.851.027A1.07,1.07,0,1,0,37.341,36.8,1.011,1.011,0,0,0,36.317,35.731Zm9.678,2.385c0,.027.027.046.027.1,0,.027-.027.046-.027.1a.32.32,0,0,0-.046.073.118.118,0,0,1-.1.046c-.027.027-.046.027-.1.027a.181.181,0,0,1-.1-.027c-.027,0-.046-.027-.073-.046s-.046-.046-.046-.073a.166.166,0,0,1-.027-.1c0-.046,0-.073.027-.1a.172.172,0,0,1,.046-.1.321.321,0,0,1,.073-.046.166.166,0,0,1,.1-.027c.046,0,.073,0,.1.027.046.027.073.027.1.046S45.967,38.071,45.995,38.117Zm-.2.128c.046,0,.046-.027.073-.027a.111.111,0,0,0,0-.146c-.027,0-.046-.027-.1-.027H45.62v.32h.073v-.128h.027l.1.128h.073l-.1-.119ZM52.639,6.707V38.875a4.388,4.388,0,0,1-4.387,4.387H4.387A4.388,4.388,0,0,1,0,38.875V6.707A4.388,4.388,0,0,1,4.387,2.32H48.252A4.388,4.388,0,0,1,52.639,6.707ZM5.849,19.464A12.651,12.651,0,0,0,25.5,30.011a13.629,13.629,0,0,1,0-21.065A12.651,12.651,0,0,0,5.849,19.464Zm20.471,9.943a12.653,12.653,0,0,0,0-19.877A12.653,12.653,0,0,0,26.319,29.407Zm-13,6.973a1.281,1.281,0,0,0-1.343-1.343,1.307,1.307,0,0,0-1.17.594,1.212,1.212,0,0,0-1.115-.594,1.16,1.16,0,0,0-.969.493v-.4H7.969v3.354h.749c0-1.727-.228-2.76.822-2.76.932,0,.749.932.749,2.76h.722c0-1.672-.228-2.76.822-2.76.932,0,.749.914.749,2.76h.749v-2.1Zm4.1-1.252H16.7v.4a1.317,1.317,0,0,0-1.069-.493,1.767,1.767,0,0,0,0,3.528,1.267,1.267,0,0,0,1.069-.493v.42h.722Zm3.7,2.34c0-1.371-2.093-.749-2.093-1.389,0-.521,1.088-.439,1.691-.1l.3-.594c-.859-.557-2.76-.548-2.76.749s2.093.759,2.093,1.371c0,.576-1.234.53-1.892.073l-.32.576C19.164,38.848,21.119,38.7,21.119,37.468Zm3.235.85-.2-.621c-.347.192-1.115.4-1.115-.375V35.8h1.2v-.676h-1.2V34.1h-.749v1.024h-.695V35.8h.695v1.526c0,1.608,1.581,1.316,2.065,1Zm1.215-1.225h2.513c0-1.48-.676-2.065-1.59-2.065a1.645,1.645,0,0,0-1.663,1.764,1.823,1.823,0,0,0,3.089,1.3l-.347-.548c-.713.585-1.791.53-2-.448Zm5.4-1.965a1.072,1.072,0,0,0-1.389.4v-.4h-.749v3.354h.749V36.59a.763.763,0,0,1,1.17-.768ZM31.94,36.8c0-1.042,1.06-1.38,1.892-.768l.347-.594a1.809,1.809,0,1,0,0,2.742l-.347-.594C32.991,38.181,31.94,37.824,31.94,36.8Zm6.1-1.672h-.749v.4a1.6,1.6,0,0,0-2.732,1.27c0,1.755,2.047,2.257,2.732,1.27v.42h.749Zm3.08,0a1.1,1.1,0,0,0-1.389.4v-.4H39v3.354h.722V36.59a.767.767,0,0,1,1.17-.768ZM44.8,33.767h-.722V35.53a1.6,1.6,0,0,0-2.732,1.27c0,1.773,2.056,2.248,2.732,1.27v.42H44.8Zm.695-6.863v.42h.073V26.9h.174V26.83h-.42V26.9h.174Zm.6,11.314a.279.279,0,0,0-.027-.146c-.027-.027-.046-.073-.073-.1s-.073-.046-.1-.073c-.046,0-.1-.027-.146-.027a.972.972,0,0,1-.128.027.477.477,0,0,0-.1.073.143.143,0,0,0-.073.1.279.279,0,0,0-.027.146.266.266,0,0,0,.027.128.143.143,0,0,0,.073.1.317.317,0,0,0,.1.073.248.248,0,0,0,.128.027.279.279,0,0,0,.146-.027c.027-.027.073-.046.1-.073s.046-.073.073-.1A.266.266,0,0,0,46.1,38.217Zm.292-11.4H46.26l-.146.32-.146-.32H45.84v.493h.073V26.94l.146.32h.1l.128-.32v.375h.1Zm.4-7.357A12.651,12.651,0,0,0,27.142,8.937a13.629,13.629,0,0,1,0,21.065A12.651,12.651,0,0,0,46.79,19.464Z" transform="translate(0 -2.32)" fill="#fff"/>
</svg>
