<svg xmlns="http://www.w3.org/2000/svg" width="52.639" height="40.941" viewBox="0 0 52.639 40.941">
  <path id="Icon_awesome-cc-visa" data-name="Icon awesome-cc-visa" d="M42.961,20.463s.695,3.4.85,4.112H40.758c.3-.813,1.462-3.975,1.462-3.975-.018.027.3-.832.484-1.362l.256,1.225ZM52.639,6.637V38.8a4.388,4.388,0,0,1-4.387,4.387H4.387A4.388,4.388,0,0,1,0,38.8V6.637A4.388,4.388,0,0,1,4.387,2.25H48.252A4.388,4.388,0,0,1,52.639,6.637Zm-38.7,22.956L19.712,15.41H15.828L12.237,25.1l-.393-1.965-1.279-6.525A1.528,1.528,0,0,0,8.9,15.41H2.988l-.064.283a14.5,14.5,0,0,1,3.857,1.563l3.272,12.337Zm8.627.018,2.3-14.2H21.193L18.9,29.611h3.665Zm12.785-4.642c.018-1.618-.969-2.851-3.08-3.866-1.289-.649-2.074-1.088-2.074-1.755.018-.6.667-1.225,2.111-1.225a6.3,6.3,0,0,1,2.732.539l.329.155.5-3.071a9.126,9.126,0,0,0-3.29-.6c-3.628,0-6.178,1.937-6.2,4.7-.027,2.038,1.828,3.171,3.217,3.857,1.416.695,1.9,1.151,1.9,1.764-.018.95-1.151,1.389-2.2,1.389a7.32,7.32,0,0,1-3.445-.759l-.484-.228-.512,3.189a11.214,11.214,0,0,0,4.094.759C32.808,29.821,35.321,27.911,35.348,24.969Zm12.9,4.642-2.961-14.2H42.449a1.807,1.807,0,0,0-1.919,1.179L35.074,29.611h3.857s.631-1.755.768-2.129h4.716c.11.5.439,2.129.439,2.129Z" transform="translate(0 -2.25)" fill="#fff"/>
</svg>
