<?xml version="1.0" encoding="utf-8"?>
<!-- Generator: Adobe Illustrator 24.0.3, SVG Export Plug-In . SVG Version: 6.00 Build 0)  -->
<svg version="1.1" id="Lag_1" xmlns="http://www.w3.org/2000/svg" xmlns:xlink="http://www.w3.org/1999/xlink" x="0px" y="0px"
	 viewBox="0 0 957 438" style="enable-background:new 0 0 957 438;" xml:space="preserve">
<style type="text/css">
	.st0{fill:#FFFFFF;}
</style>
<g>
	<path class="st0" d="M136.56,283.51v108.5h-3.1V290.17l-49.44,86.49h-1.86l-49.45-86.18v101.52h-3.1v-108.5h2.63l50.84,88.97
		l50.84-88.97H136.56z"/>
	<path class="st0" d="M193.6,385.34c-8.47-4.75-15.14-11.29-19.99-19.61c-4.86-8.32-7.29-17.64-7.29-27.98
		c0-10.33,2.43-19.66,7.29-27.98c4.86-8.32,11.52-14.85,19.99-19.61c8.47-4.75,17.93-7.13,28.37-7.13c10.44,0,19.89,2.38,28.36,7.13
		c8.47,4.75,15.14,11.29,20,19.61c4.86,8.32,7.29,17.65,7.29,27.98c0,10.33-2.43,19.66-7.29,27.98c-4.86,8.32-11.52,14.86-20,19.61
		c-8.47,4.75-17.93,7.13-28.36,7.13C211.53,392.47,202.08,390.1,193.6,385.34z M248.71,382.79c8.01-4.5,14.31-10.7,18.91-18.6
		c4.6-7.91,6.9-16.71,6.9-26.43c0-9.71-2.3-18.52-6.9-26.43c-4.6-7.9-10.9-14.1-18.91-18.6c-8.01-4.5-16.92-6.74-26.74-6.74
		c-9.82,0-18.73,2.25-26.74,6.74c-8.01,4.49-14.31,10.69-18.91,18.6c-4.6,7.91-6.9,16.72-6.9,26.43c0,9.71,2.3,18.52,6.9,26.43
		c4.6,7.9,10.9,14.1,18.91,18.6c8.01,4.5,16.92,6.74,26.74,6.74C231.79,389.53,240.7,387.28,248.71,382.79z M267.85,272.66h3.56
		l-95.32,130.2h-3.56L267.85,272.66z"/>
	<path class="st0" d="M392.62,363.64c0,9.2-3.28,16.22-9.84,21.08c-6.56,4.86-16.35,7.29-29.37,7.29h-46.03v-108.5h42.93
		c11.37,0,20.28,2.35,26.74,7.05c6.46,4.7,9.69,11.5,9.69,20.38c0,6.82-1.89,12.38-5.66,16.66c-3.77,4.29-9.02,7.21-15.73,8.76
		C383.53,338.84,392.62,347.94,392.62,363.64z M310.47,286.45v48.98h40.46c10.44,0,18.5-2.09,24.18-6.28
		c5.68-4.19,8.52-10.25,8.52-18.21c0-7.96-2.84-14.03-8.52-18.21c-5.68-4.19-13.74-6.28-24.18-6.28H310.47z M389.52,363.64
		c0-8.58-2.97-14.93-8.91-19.06c-5.94-4.13-14.8-6.2-26.58-6.2h-43.56v50.68h43.56C377.69,389.06,389.52,380.59,389.52,363.64z"/>
	<path class="st0" d="M495.54,389.06v2.95h-72.23v-108.5h69.9v2.94h-66.81v48.98h59.83v2.95h-59.83v50.68H495.54z"/>
	<path class="st0" d="M526.85,283.51h3.1v105.55h64.63v2.95h-67.73V283.51z"/>
	<path class="st0" d="M702,283.51v108.5h-3.1v-53.63h-79.05v53.63h-3.1v-108.5h3.1v51.92h79.05v-51.92H702z"/>
	<path class="st0" d="M870.64,388.21c-6.92-2.84-12.25-6.53-15.96-11.08l2.17-2.01c3.51,4.13,8.52,7.57,15.04,10.31
		c6.51,2.74,13.43,4.11,20.77,4.11c11.26,0,19.76-2.25,25.5-6.74c5.73-4.5,8.6-10.31,8.6-17.44c0-5.58-1.5-10.02-4.5-13.33
		c-3-3.31-6.69-5.79-11.08-7.44c-4.39-1.65-10.31-3.36-17.75-5.11c-7.96-1.96-14.26-3.85-18.91-5.66c-4.65-1.81-8.6-4.6-11.86-8.37
		c-3.25-3.77-4.88-8.81-4.88-15.11c0-4.96,1.29-9.51,3.88-13.64c2.58-4.13,6.61-7.44,12.09-9.92c5.48-2.48,12.25-3.72,20.31-3.72
		c5.79,0,11.47,0.91,17.05,2.71c5.58,1.81,10.38,4.21,14.42,7.21l-1.71,2.48c-4.24-3.1-8.97-5.45-14.18-7.05
		c-5.22-1.6-10.36-2.4-15.42-2.4c-10.85,0-19.12,2.3-24.8,6.9c-5.68,4.6-8.52,10.46-8.52,17.59c0,5.58,1.5,10.05,4.49,13.41
		c3,3.36,6.72,5.87,11.16,7.52c4.44,1.65,10.44,3.41,17.98,5.27c7.85,1.96,14.1,3.85,18.75,5.66c4.65,1.81,8.58,4.55,11.78,8.22
		c3.2,3.67,4.8,8.6,4.8,14.8c0,4.96-1.34,9.51-4.03,13.64c-2.69,4.13-6.8,7.42-12.32,9.84c-5.53,2.43-12.43,3.64-20.69,3.64
		C884.95,392.47,877.56,391.05,870.64,388.21z"/>
</g>
<g>
	<path class="st0" d="M157.52,147.57h37v71c-9.5,7.17-20.5,12.67-33,16.5s-25.09,5.75-37.75,5.75c-18.17,0-34.5-3.88-49-11.62
		s-25.88-18.5-34.12-32.25s-12.38-29.29-12.38-46.62c0-17.33,4.12-32.88,12.38-46.62s19.71-24.5,34.38-32.25
		c14.66-7.75,31.16-11.62,49.5-11.62c15.33,0,29.25,2.59,41.75,7.75c12.5,5.17,23,12.67,31.5,22.5l-26,24
		c-12.5-13.16-27.59-19.75-45.25-19.75c-11.17,0-21.09,2.34-29.75,7c-8.67,4.67-15.42,11.25-20.25,19.75
		c-4.84,8.5-7.25,18.25-7.25,29.25c0,10.84,2.41,20.5,7.25,29c4.83,8.5,11.54,15.12,20.12,19.88c8.58,4.75,18.38,7.12,29.38,7.12
		c11.66,0,22.16-2.5,31.5-7.5V147.57z"/>
	<path class="st0" d="M347.27,200.32h-81.25l-15.5,37.5h-41.5l78-175h40l78.25,175h-42.5L347.27,200.32z M334.52,169.57l-27.75-67
		l-27.75,67H334.52z"/>
	<path class="st0" d="M423.52,62.82h79.5c19,0,35.79,3.62,50.38,10.88c14.58,7.25,25.91,17.46,34,30.62
		c8.08,13.17,12.12,28.5,12.12,46s-4.04,32.84-12.12,46c-8.09,13.17-19.42,23.38-34,30.62c-14.59,7.25-31.38,10.88-50.38,10.88
		h-79.5V62.82z M501.02,204.57c17.5,0,31.46-4.88,41.88-14.62c10.41-9.75,15.62-22.96,15.62-39.62c0-16.66-5.21-29.88-15.62-39.62
		c-10.42-9.75-24.38-14.62-41.88-14.62h-37v108.5H501.02z"/>
	<path class="st0" d="M765.51,205.32v32.5h-135.5v-175h132.25v32.5h-92v38h81.25v31.5h-81.25v40.5H765.51z"/>
	<path class="st0" d="M815.13,235.19c-12.92-3.75-23.29-8.62-31.12-14.62l13.75-30.5c7.5,5.5,16.41,9.92,26.75,13.25
		c10.33,3.34,20.66,5,31,5c11.5,0,20-1.71,25.5-5.12c5.5-3.41,8.25-7.96,8.25-13.62c0-4.16-1.62-7.62-4.88-10.38
		s-7.42-4.96-12.5-6.62c-5.09-1.66-11.96-3.5-20.62-5.5c-13.34-3.16-24.25-6.33-32.75-9.5c-8.5-3.16-15.79-8.25-21.88-15.25
		c-6.09-7-9.12-16.33-9.12-28c0-10.16,2.75-19.38,8.25-27.62s13.79-14.79,24.88-19.62c11.08-4.83,24.62-7.25,40.62-7.25
		c11.16,0,22.08,1.34,32.75,4c10.66,2.67,20,6.5,28,11.5l-12.5,30.75c-16.17-9.16-32.34-13.75-48.5-13.75
		c-11.34,0-19.71,1.84-25.12,5.5c-5.42,3.67-8.12,8.5-8.12,14.5s3.12,10.46,9.38,13.38c6.25,2.92,15.79,5.79,28.62,8.62
		c13.33,3.17,24.25,6.34,32.75,9.5c8.5,3.17,15.79,8.17,21.88,15c6.08,6.84,9.12,16.09,9.12,27.75c0,10-2.79,19.12-8.38,27.38
		c-5.59,8.25-13.96,14.79-25.12,19.62c-11.17,4.83-24.75,7.25-40.75,7.25C841.42,240.82,828.05,238.94,815.13,235.19z"/>
</g>
<path class="st0" d="M740,326c-0.12-1.07-0.26-1.45,0-2c0.27-0.59,0.74-0.82,3-2c1.81-0.95,1.82-0.96,2-1c1.38-0.29,2.57,0.29,4,1
	c0.61,0.3,1.76,0.87,3,2c1.36,1.24,2.09,2.45,3,4c1.17,1.99,0.76,1.81,2,4c1.25,2.21,1.91,2.83,3,5c0.76,1.5,1,2,1,2
	c0.63,1.3,0.68,1.48,1,2c0.59,0.96,1.11,1.8,2,2c0.27,0.06,0.19-0.03,1,0c1.28,0.04,1.75,0.27,2,0c0.05-0.06,0.19-0.24,0-1
	c-0.3-1.18-0.96-1.95-1-2c-0.28-0.33-1.19-1.55-3-4c-0.94-1.27-1.44-1.95-2-3c-0.16-0.3-0.22-0.43-1-2c-0.03-0.05-0.9-1.79-1-2
	c-2.38-4.76-2.41-4.68-3-6c-0.96-2.12-1.59-3.87-2-5c-0.36-1.01-0.67-1.85-1-3c-0.74-2.56-1.11-3.83-1-5c0.21-2.13,1.61-3.57,3-5
	c1.95-2,3.87-2.96,6-4c3.71-1.81,6.84-2.52,9-3c3.36-0.74,6-0.94,7-1c1.84-0.11,1.86,0.01,6,0c5.38-0.01,5.66-0.21,8,0
	c2.4,0.21,4.2,0.61,6,1c2.25,0.49,4.33,0.95,7,2c2.07,0.82,3.42,1.56,6,3c0.53,0.29,1.67,0.94,3,2c0.96,0.77,1.5,1.2,2,2
	c0.77,1.21,0.93,2.42,1,3c0.05,0.41,0.11,1.11,0,2c-0.21,1.77-0.84,2.52-2,5c-1.05,2.26-1.74,4.24-2,5c-0.58,1.68-0.52,1.8-1,3
	c-0.23,0.59-0.87,2.11-2,4c-1.27,2.13-1.34,1.65-2,3c-0.79,1.62-0.84,2.62-2,4c-0.37,0.44-0.29,0.25-1,1c-0.45,0.48-1.06,1.16-3,4
	c-0.83,1.21-1.19,1.77-1,2c0.11,0.14,0.36,0.06,1,0c1.24-0.11,1.27,0.13,2,0c0.93-0.17,1.6-0.68,2-1c0.43-0.34,0.73-0.67,1-1
	c1.13-1.38,1.84-2.69,2-3c0.82-1.55,1.27-2.5,2-4c1.22-2.48,1.1-2.14,2-4c1.45-3,1.39-3.15,2-4c0.8-1.11,1.57-1.77,3-3
	c1.34-1.15,2.03-1.74,3-2c1.1-0.3,2.04-0.15,3,0c0.82,0.13,1.87,0.29,3,1c0.35,0.22,1.26,0.85,2,2c0.35,0.55,1.42,2.21,1,4
	c-0.17,0.72-0.41,0.73-1,2c-0.62,1.34-0.83,2.36-1,3c-0.41,1.56-1.27,3.04-3,6c-1.46,2.49-2.38,4.07-4,6c-1.83,2.17-3.57,3.65-4,4
	c-1.92,1.6-2.92,2.03-5,4c-1.23,1.16-1.08,1.2-2,2c-0.86,0.74-2.68,2.32-5,3c-1.26,0.37-1.35,0.09-6,0c-4.69-0.1-3.96,0.2-6,0
	c-2.17-0.21-4.7-0.71-5,0c-0.03,0.07-0.01,0.09,0,1c0,0.33,0,0.67,0,1c0,1.33,0,2.67,0,4c0,1.67,0,3.33,0,5s0,3.33,0,5
	c0,1.33,0.25,2.69,0,4c-0.13,0.7-0.41,1.74,0,2c0.15,0.1,0.3,0.03,1,0c0.51-0.02,0.79,0,1,0c1.48,0,5-1,5-1c1.53-0.43,2.65-0.69,4-1
	c2.94-0.67,2.79-0.46,5-1c2.58-0.62,3.27-1.02,5-1c1.55,0.02,2.82,0.37,3,1c0.05,0.18-0.02,0.26,0,1c0.02,0.74,0.1,0.86,0,1
	c-0.26,0.37-1.08,0.02-2,0c-1.04-0.03-1.29,0.38-3,1c-1.61,0.58-1.58,0.29-4,1c-1.86,0.55-1.65,0.61-3,1c-2.43,0.7-3.9,0.46-4,1
	c-0.07,0.35,0.5,0.84,1,1c0.16,0.05,0.18,0.01,1,0c0,0,0,0,1,0c0.33,0,0.67,0,1,0c2,0,2,0,2,0c0.34,0,0.97,0.04,4,1
	c2.51,0.8,2.05,0.77,3,1c1.83,0.45,2.7,0.36,3,1c0.21,0.44-0.12,0.66,0,2c0.05,0.6,0.14,0.81,0,1c-0.34,0.46-1.48,0.16-2,0
	c-1.63-0.5-3.37-0.53-5-1c-0.75-0.22-0.45-0.09-7-1c-3.58-0.5-5.39-0.76-6-1c-2.26-0.9-2.95-1.91-5-2c-0.85-0.04-1.38,0.11-3,0
	c-0.93-0.06-1.33-0.15-2,0c-0.86,0.19-1.23,0.57-2,1c-0.8,0.45-1.53,0.63-3,1c-2.29,0.58-3.39,0.58-6,1c-0.49,0.08-2.5,0.41-5,1
	c-2.58,0.61-3.86,1.07-6,1c-2.21-0.07-2.77-0.63-3-1c-0.35-0.56-0.39-1.42,0-2c0.54-0.8,1.56-0.58,4-1c0.89-0.15,1.92-0.43,4-1
	c2.87-0.78,2.99-0.97,4-1c1.78-0.05,2.67-0.08,3,0c0.16,0.04,0.55,0.14,1,0c0.5-0.16,1.05-0.61,1-1c-0.04-0.35-0.55-0.52-2-1
	c-2.1-0.7-3.14-1.04-3-1c-1.96-0.61-1.72-0.63-3-1c-2.38-0.7-3.57-1.05-5-1c-1.67,0.05-2.49,0.54-3,0c-0.45-0.47-0.37-1.41,0-2
	c0.39-0.62,1.04-0.77,2-1c0.65-0.15,1.77-0.42,3,0c0.98,0.33,1.02,0.76,2,1c0.78,0.19,1.12,0.01,2,0c0.5-0.01,0.98,0.1,4,1
	c1.18,0.35,2.19,0.7,3,1c1.22,0.02,3.02,0.2,5,1c1.63,0.66,2.44,1.36,3,1c0.63-0.41,0.14-1.63,0-5c0,0,0-1.33,0-4c0-1.67,0-3.33,0-5
	c0.28-1.81,1.2-8.22,0-9c-0.1-0.07-0.21-0.12-0.21-0.12c-0.39-0.15-0.92,0.01-2.79,0.12c0,0,0,0-5,0c-1.67,0-3.33-0.04-5,0
	c-2.12,0.05-2.29,0.13-3,0c-1.36-0.26-2.26-0.84-4-2c-1.87-1.24-1.86-1.52-4-3c-1.71-1.18-1.93-1.15-3-2c-1.15-0.91-1.96-1.78-3-3
	c-3.26-3.83-5.5-7.23-6-8c-0.51-0.78-1.34-2.18-3-5c-1.66-2.8-1.86-3.23-2-4C739.69,329.24,740.31,328.83,740,326z"/>
</svg>
