<?xml version="1.0" encoding="utf-8"?>
<!-- Generator: Adobe Illustrator 24.0.3, SVG Export Plug-In . SVG Version: 6.00 Build 0)  -->
<svg version="1.1" id="Lag_1" focusable="false" xmlns="http://www.w3.org/2000/svg" xmlns:xlink="http://www.w3.org/1999/xlink"
	 x="0px" y="0px" viewBox="0 0 576 512" style="enable-background:new 0 0 576 512;" xml:space="preserve">
<style type="text/css">
	.st0{fill:#FFFFFF;}
</style>
<path class="st0" d="M528.12,301.32l47.27-208c3.41-15.02-8-29.32-23.4-29.32H159.21l-9.17-44.81C147.76,8.02,137.93,0,126.53,0H24
	C10.74,0,0,10.74,0,24v16c0,13.26,10.74,24,24,24h69.88l70.25,343.43C147.32,417.1,136,435.22,136,456c0,30.93,25.07,56,56,56
	s56-25.07,56-56c0-15.67-6.45-29.83-16.82-40h209.65C430.45,426.17,424,440.33,424,456c0,30.93,25.07,56,56,56s56-25.07,56-56
	c0-22.17-12.89-41.33-31.58-50.4l5.52-24.28c3.41-15.02-8-29.32-23.4-29.32H218.12l-6.54-32h293.14
	C515.92,320,525.64,312.25,528.12,301.32z"/>
</svg>
